# File created by Blade
# Date/Time:  Tue Jan 27 19:00:46 2015
#---------------------------------------------------------
:version 1.10
:name HOM
:units
  mass 1.0
  length 1.000000
  angle deg
:documentation
     Acclaim Skeleton File
:root
   axis xyz
   order TX TY TZ RX RY RZ
   position 0.000000 0.000000 0.000000
   orientation 0 0 0
:bonedata
   begin
      id 1
      name Spine_dum
      direction 0.000000 1.000000 0.000000
      length 5.195262
      axis 0.0 0.0 0.0 xyz
   end
   begin
      id 2
      name LeftUpLeg_dum
      direction 1.000000 0.000000 0.000000
      length 3.351363
      axis 0.0 0.0 0.0 xyz
   end
   begin
      id 3
      name RightUpLeg_dum
      direction -1.000000 0.000000 0.000000
      length 3.351363
      axis 0.0 0.0 0.0 xyz
   end
   begin
      id 4
      name Spine
      direction 0.000000 1.000000 0.000000
      length 0.000000
      axis 0.0 0.0 0.0 xyz
      dof rx ry rz
   end
   begin
      id 5
      name Spine_dum1
      direction 0.000000 1.000000 0.000000
      length 15.653875
      axis 0.0 0.0 0.0 xyz
   end
   begin
      id 6
      name Spine_dum2
      direction 0.000000 1.000000 0.000000
      length 10.329768
      axis 0.0 0.0 0.0 xyz
   end
   begin
      id 7
      name Spine_dum3
      direction 0.000000 1.000000 0.000000
      length 10.329768
      axis 0.0 0.0 0.0 xyz
   end
   begin
      id 8
      name Head
      direction 0.000000 1.000000 0.000000
      length 4.527550
      axis 0.0 0.0 0.0 xyz
      dof rx ry rz
   end
   begin
      id 9
      name LeftShoulder
      direction 1.000000 0.000000 0.000000
      length 6.996006
      axis 0.0 0.0 -90.0 xyz
      dof rx ry rz
   end
   begin
      id 10
      name LeftArm
      direction 1.000000 0.000000 0.000000
      length 10.209302
      axis 0.0 0.0 -90.0 xyz
      dof rx ry rz
   end
   begin
      id 11
      name LeftForeArm
      direction 1.000000 0.000000 0.000000
      length 8.563163
      axis 0.0 0.0 -90.0 xyz
      dof ry rz rx
   end
   begin
      id 12
      name LeftHand
      direction 0.000000 0.000000 0.000000
      length 0.000000
      axis 0.0 0.0 -90.0 xyz
      dof rx ry rz
   end
   begin
      id 13
      name LeftHand_dum1
      direction 0.000000 0.000000 0.000000
      length 0.000000
      axis 0.0 0.0 -90.0 xyz
   end
   begin
      id 14
      name LeftHand_dum2
      direction 1.000000 0.000000 0.000000
      length 3.937000
      axis 0.0 0.0 -90.0 xyz
   end
   begin
      id 15
      name LeftHandThumb1
      direction 0.000000 0.000000 1.000000
      length 3.937000
      axis 0.0 0.0 -90.0 xyz
      dof rx rz ry
   end
   begin
      id 16
      name RightShoulder
      direction -1.000000 0.000000 0.000000
      length 6.996006
      axis 0.0 0.0 90.0 xyz
      dof rx ry rz
   end
   begin
      id 17
      name RightArm
      direction -1.000000 0.000000 0.000000
      length 10.209302
      axis 0.0 0.0 90.0 xyz
      dof rx ry rz
   end
   begin
      id 18
      name RightForeArm
      direction -1.000000 0.000000 0.000000
      length 8.563163
      axis 0.0 0.0 90.0 xyz
      dof ry rz rx
   end
   begin
      id 19
      name RightHand
      direction 0.000000 0.000000 0.000000
      length 0.000000
      axis 0.0 0.0 90.0 xyz
      dof rx ry rz
   end
   begin
      id 20
      name RightHand_dum1
      direction 0.000000 0.000000 0.000000
      length 0.000000
      axis 0.0 0.0 90.0 xyz
   end
   begin
      id 21
      name RightHand_dum2
      direction -1.000000 0.000000 0.000000
      length 3.937000
      axis 0.0 0.0 90.0 xyz
   end
   begin
      id 22
      name RightHandThumb1
      direction 0.000000 0.000000 1.000000
      length 3.937000
      axis 0.0 0.0 90.0 xyz
      dof rx rz ry
   end
   begin
      id 23
      name LeftUpLeg
      direction 0.000000 -1.000000 0.000000
      length 16.346831
      axis 0.0 0.0 0.0 xyz
      dof rx ry rz
   end
   begin
      id 24
      name LeftLeg
      direction 0.000000 -1.000000 0.000000
      length 13.959795
      axis 0.0 0.0 0.0 xyz
      dof rx ry rz
   end
   begin
      id 25
      name LeftFoot
      direction 0.000000 -0.258819 0.965926
      length 5.165550
      axis 15.0 0.0 0.0 xyz
      dof rx ry rz
   end
   begin
      id 26
      name LeftToeBase
      direction 0.000000 0.000000 1.000000
      length 2.952750
      axis 0.0 0.0 0.0 xyz
      dof rx ry rz
   end
   begin
      id 27
      name RightUpLeg
      direction 0.000000 -1.000000 0.000000
      length 16.346831
      axis 0.0 0.0 0.0 xyz
      dof rx ry rz
   end
   begin
      id 28
      name RightLeg
      direction 0.000000 -1.000000 0.000000
      length 13.959795
      axis 0.0 0.0 0.0 xyz
      dof rx ry rz
   end
   begin
      id 29
      name RightFoot
      direction 0.000000 -0.258819 0.965926
      length 5.165550
      axis 15.0 0.0 0.0 xyz
      dof rx ry rz
   end
   begin
      id 30
      name RightToeBase
      direction 0.000000 0.000000 1.000000
      length 2.952750
      axis 0.0 0.0 0.0 xyz
      dof rx ry rz
   end
:hierarchy
   begin
      root Spine_dum LeftUpLeg_dum RightUpLeg_dum
      Spine_dum Spine
      LeftUpLeg_dum LeftUpLeg
      RightUpLeg_dum RightUpLeg
      Spine Spine_dum1 Spine_dum2 Spine_dum3
      Spine_dum1 Head
      Spine_dum2 LeftShoulder
      Spine_dum3 RightShoulder
      LeftShoulder LeftArm
      LeftArm LeftForeArm
      LeftForeArm LeftHand
      LeftHand LeftHand_dum1 LeftHand_dum2
      LeftHand_dum1 LeftHandThumb1
      RightShoulder RightArm
      RightArm RightForeArm
      RightForeArm RightHand
      RightHand RightHand_dum1 RightHand_dum2
      RightHand_dum1 RightHandThumb1
      LeftUpLeg LeftLeg
      LeftLeg LeftFoot
      LeftFoot LeftToeBase
      RightUpLeg RightLeg
      RightLeg RightFoot
      RightFoot RightToeBase
   end

# File created by Blade
# Date/Time:  Tue Jan 27 19:00:36 2015
# Frame Rate: 120.000 fps
#------------------------------------------------------
:FULLY-SPECIFIED
:DEGREES
400
root -2.572154 31.621304 -4.288469 6.664996 33.724642 1.285855
Spine -2.823296 -10.627321 -2.437692
Head 10.968583 1.150671 1.363712
LeftShoulder -16.123856 13.318672 14.141539
LeftArm 19.893474 -33.211960 -72.490529
LeftForeArm -12.974391 -0.000000 73.540041
LeftHand -9.006164 -0.000000 19.649073
LeftHandThumb1 -26.253704 0.000000 33.147579
RightShoulder -12.487260 -3.583316 -12.128975
RightArm 4.426020 -28.411434 89.893180
RightForeArm -23.429886 0.000000 25.402079
RightHand -15.320185 -0.000000 7.734144
RightHandThumb1 -24.326973 -0.000000 -32.862282
LeftUpLeg -7.818064 -20.499463 -6.375911
LeftLeg 17.149306 -0.000000 -0.000000
LeftFoot -22.423754 17.306820 -12.675166
LeftToeBase 9.379774 -0.000000 -0.000000
RightUpLeg -33.004411 18.909048 -4.152435
RightLeg 101.863684 -0.000000 -0.000000
RightFoot -14.661658 -4.540481 20.427542
RightToeBase -0.481465 -0.000000 0.000000
401
root -2.560425 31.619392 -4.282531 6.692327 33.670077 1.322330
Spine -2.873070 -10.601078 -2.456064
Head 10.949236 1.090965 1.342616
LeftShoulder -16.150842 13.369302 14.058331
LeftArm 19.829260 -33.226437 -72.441376
LeftForeArm -12.965083 0.000000 73.735683
LeftHand -9.022091 -0.000000 19.517754
LeftHandThumb1 -26.253704 0.000000 33.147579
RightShoulder -12.487853 -3.587680 -12.135354
RightArm 4.442333 -28.471951 89.903510
RightForeArm -23.400679 0.000000 25.270034
RightHand -15.321965 0.000000 7.849660
RightHandThumb1 -24.326973 -0.000000 -32.862282
LeftUpLeg -7.789199 -20.509422 -6.420227
LeftLeg 17.116832 -0.000000 -0.000000
LeftFoot -22.365615 17.266765 -12.724229
LeftToeBase 9.092883 -0.000000 -0.000000
RightUpLeg -32.974461 18.905522 -4.173870
RightLeg 101.885322 -0.000000 -0.000000
RightFoot -14.513008 -4.589957 20.341948
RightToeBase 0.089415 -0.000000 -0.000000
402
root -2.547047 31.616968 -4.277220 6.715720 33.589528 1.367638
Spine -2.919174 -10.528738 -2.484035
Head 10.936684 1.016346 1.320044
LeftShoulder -16.164991 13.421480 13.994893
LeftArm 19.808766 -33.238382 -72.433081
LeftForeArm -12.914860 -0.000000 73.882688
LeftHand -9.060161 -0.000000 19.419596
LeftHandThumb1 -26.253704 0.000000 33.147579
RightShoulder -12.501879 -3.585872 -12.145171
RightArm 4.448595 -28.549425 89.909861
RightForeArm -23.383956 -0.000000 25.120451
RightHand -15.248235 -0.000000 7.910085
RightHandThumb1 -24.326973 -0.000000 -32.862282
LeftUpLeg -7.740659 -20.437556 -6.494431
LeftLeg 17.067407 -0.000000 -0.000000
LeftFoot -22.367546 17.275360 -12.737104
LeftToeBase 8.963791 -0.000000 -0.000000
RightUpLeg -32.942867 18.920882 -4.199976
RightLeg 101.918875 -0.000000 -0.000000
RightFoot -14.253861 -4.712557 20.048678
RightToeBase -0.079716 -0.000000 0.000000
403
root -2.532362 31.614714 -4.271366 6.730037 33.518378 1.420260
Spine -2.947716 -10.480009 -2.523222
Head 10.919397 0.959944 1.305047
LeftShoulder -16.203774 13.468580 13.936622
LeftArm 19.785618 -33.229783 -72.417604
LeftForeArm -12.885521 -0.000000 74.020534
LeftHand -9.114346 -0.000000 19.356578
LeftHandThumb1 -26.253704 0.000000 33.147579
RightShoulder -12.506129 -3.583673 -12.154016
RightArm 4.454775 -28.647655 89.910772
RightForeArm -23.362467 -0.000000 24.968414
RightHand -15.264643 -0.000000 8.036739
RightHandThumb1 -24.326973 -0.000000 -32.862282
LeftUpLeg -7.673566 -20.377999 -6.580457
LeftLeg 17.008369 -0.000000 -0.000000
LeftFoot -22.335564 17.302293 -12.680230
LeftToeBase 9.100439 -0.000000 -0.000000
RightUpLeg -32.889401 18.927766 -4.229034
RightLeg 101.961661 -0.000000 -0.000000
RightFoot -14.040645 -4.784164 20.070001
RightToeBase 0.402972 -0.000000 -0.000000
404
root -2.519005 31.612534 -4.266129 6.752496 33.450295 1.470047
Spine -2.984667 -10.451730 -2.557116
Head 10.901421 0.918174 1.289919
LeftShoulder -16.261565 13.521743 13.875153
LeftArm 19.741234 -33.199763 -72.376465
LeftForeArm -12.893160 -0.000000 74.155351
LeftHand -9.107611 -0.000000 19.299026
LeftHandThumb1 -26.253704 0.000000 33.147579
RightShoulder -12.495126 -3.591068 -12.153626
RightArm 4.477977 -28.762635 89.888042
RightForeArm -23.351534 0.000000 24.807179
RightHand -15.212947 0.000000 8.130590
RightHandThumb1 -24.326973 -0.000000 -32.862282
LeftUpLeg -7.625531 -20.308729 -6.652957
LeftLeg 16.962551 -0.000000 -0.000000
LeftFoot -22.323447 17.271995 -12.692383
LeftToeBase 8.989884 -0.000000 -0.000000
RightUpLeg -32.844519 18.920144 -4.253177
RightLeg 101.999509 -0.000000 -0.000000
RightFoot -13.787645 -4.957278 19.862599
RightToeBase 0.303968 -0.000000 -0.000000
405
root -2.506567 31.611117 -4.260287 6.763979 33.385067 1.507950
Spine -3.017625 -10.399098 -2.585013
Head 10.895363 0.856810 1.275883
LeftShoulder -16.284009 13.564644 13.839513
LeftArm 19.684594 -33.162376 -72.338140
LeftForeArm -12.918689 -0.000000 74.267176
LeftHand -9.082666 -0.000000 19.316346
LeftHandThumb1 -26.253704 0.000000 33.147579
RightShoulder -12.505636 -3.600124 -12.143484
RightArm 4.498556 -28.869390 89.857428
RightForeArm -23.449786 -0.000000 24.636238
RightHand -15.170160 -0.000000 8.326004
RightHandThumb1 -24.326973 -0.000000 -32.862282
LeftUpLeg -7.571308 -20.230046 -6.713193
LeftLeg 16.903850 -0.000000 -0.000000
LeftFoot -22.304838 17.322230 -12.503923
LeftToeBase 9.133050 -0.000000 -0.000000
RightUpLeg -32.784938 18.911074 -4.261826
RightLeg 102.033777 -0.000000 -0.000000
RightFoot -13.591667 -5.134721 19.705587
RightToeBase 0.333848 -0.000000 -0.000000
406
root -2.494344 31.609719 -4.256638 6.778566 33.334454 1.543625
Spine -3.046344 -10.377412 -2.605354
Head 10.876181 0.817029 1.260730
LeftShoulder -16.335093 13.602807 13.811502
LeftArm 19.667985 -33.134345 -72.351825
LeftForeArm -12.921839 0.000000 74.339824
LeftHand -9.122898 0.000000 19.321120
LeftHandThumb1 -26.253704 0.000000 33.147579
RightShoulder -12.502730 -3.563717 -12.133455
RightArm 4.491497 -29.011301 89.814921
RightForeArm -23.435877 -0.000000 24.455386
RightHand -15.198115 -0.000000 8.276336
RightHandThumb1 -24.326973 -0.000000 -32.862282
LeftUpLeg -7.535251 -20.171447 -6.766662
LeftLeg 16.881758 -0.000000 -0.000000
LeftFoot -22.279358 17.181981 -12.682102
LeftToeBase 8.948096 -0.000000 -0.000000
RightUpLeg -32.733637 18.904640 -4.283605
RightLeg 102.077662 -0.000000 -0.000000
RightFoot -13.473940 -5.174713 19.960287
RightToeBase 0.575624 -0.000000 -0.000000
407
root -2.478919 31.609141 -4.248860 6.788793 33.263464 1.569590
Spine -3.104593 -10.320342 -2.608959
Head 10.907288 0.778637 1.227111
LeftShoulder -16.371710 13.674093 13.776495
LeftArm 19.686389 -33.124047 -72.403742
LeftForeArm -12.916250 -0.000000 74.387230
LeftHand -9.127717 -0.000000 19.321528
LeftHandThumb1 -26.253704 0.000000 33.147579
RightShoulder -12.517607 -3.603479 -12.119791
RightArm 4.541587 -29.159223 89.755684
RightForeArm -23.483789 -0.000000 24.269571
RightHand -15.274119 -0.000000 8.284369
RightHandThumb1 -24.326973 -0.000000 -32.862282
LeftUpLeg -7.475694 -20.111598 -6.818270
LeftLeg 16.824214 -0.000000 -0.000000
LeftFoot -22.278361 17.148280 -12.715591
LeftToeBase 8.836993 -0.000000 -0.000000
RightUpLeg -32.666502 18.897652 -4.291644
RightLeg 102.102158 -0.000000 -0.000000
RightFoot -13.477658 -5.175420 20.188196
RightToeBase 0.460290 -0.000000 -0.000000
408
root -2.468556 31.608367 -4.247462 6.794126 33.213192 1.601124
Spine -3.113375 -10.285997 -2.631347
Head 10.889899 0.740876 1.218398
LeftShoulder -16.404079 13.709124 13.766462
LeftArm 19.683902 -33.104528 -72.440426
LeftForeArm -13.001777 -0.000000 74.422519
LeftHand -9.097911 -0.000000 19.356556
LeftHandThumb1 -26.253704 0.000000 33.147579
RightShoulder -12.524861 -3.619651 -12.093979
RightArm 4.592522 -29.267129 89.695847
RightForeArm -23.602430 -0.000000 24.098217
RightHand -15.306240 0.000000 8.380735
RightHandThumb1 -24.326973 -0.000000 -32.862282
LeftUpLeg -7.436068 -20.059855 -6.869175
LeftLeg 16.788548 -0.000000 -0.000000
LeftFoot -22.272855 17.224413 -12.507658
LeftToeBase 9.295478 -0.000000 -0.000000
RightUpLeg -32.603786 18.861248 -4.293632
RightLeg 102.135790 -0.000000 -0.000000
RightFoot -13.560039 -5.263550 20.221311
RightToeBase 0.258537 -0.000000 -0.000000
409
root -2.458148 31.607758 -4.244458 6.798161 33.177694 1.621093
Spine -3.134104 -10.254992 -2.639842
Head 10.883833 0.707640 1.207693
LeftShoulder -16.440421 13.750412 13.756806
LeftArm 19.726842 -33.093719 -72.513310
LeftForeArm -13.030228 -0.000000 74.426239
LeftHand -9.074690 -0.000000 19.402711
LeftHandThumb1 -26.253704 0.000000 33.147579
RightShoulder -12.551991 -3.659049 -12.067034
RightArm 4.660399 -29.409355 89.616226
RightForeArm -23.709644 -0.000000 23.933503
RightHand -15.427174 0.000000 8.425889
RightHandThumb1 -24.326973 -0.000000 -32.862282
LeftUpLeg -7.399962 -20.014433 -6.908292
LeftLeg 16.756616 -0.000000 -0.000000
LeftFoot -22.255564 17.198689 -12.514332
LeftToeBase 9.257013 -0.000000 -0.000000
RightUpLeg -32.527949 18.822245 -4.273596
RightLeg 102.165044 -0.000000 -0.000000
RightFoot -13.695998 -5.344792 20.287467
RightToeBase 0.504198 -0.000000 -0.000000
